<svg width="25" height="25" viewBox="0 0 25 25" fill="none" xmlns="http://www.w3.org/2000/svg">
<path fill-rule="evenodd" clip-rule="evenodd" d="M4.15658 17.5562L2.78783 21.2062C2.73527 21.3467 2.72425 21.4993 2.75609 21.6459C2.78793 21.7924 2.86129 21.9267 2.96739 22.0327C3.0735 22.1387 3.20787 22.2119 3.35446 22.2436C3.50105 22.2753 3.65366 22.2641 3.79408 22.2114L7.44303 20.8427C7.86068 20.6863 8.24002 20.4423 8.55553 20.1271L19.1253 9.55727C19.1253 9.55727 18.7566 8.45206 17.6524 7.34686C16.5482 6.24269 15.442 5.87394 15.442 5.87394L4.8722 16.4437C4.55701 16.7593 4.313 17.1386 4.15658 17.5562ZM16.916 4.39998L18.3566 2.95936C18.6149 2.70102 18.9597 2.53644 19.3201 2.59686C19.8274 2.68019 20.6035 2.93227 21.3347 3.66456C22.067 4.39686 22.3191 5.17186 22.4024 5.67915C22.4628 6.03956 22.2982 6.38436 22.0399 6.64269L20.5982 8.08331C20.5982 8.08331 20.2305 6.97915 19.1253 5.87498C18.0212 4.76873 16.916 4.39998 16.916 4.39998Z" fill="#4B2D78"/>
</svg>
