<svg width="42" height="41" viewBox="0 0 42 41" fill="none" xmlns="http://www.w3.org/2000/svg">
<path d="M38.1351 20.7814C38.1351 21.57 38.7743 22.2093 39.5629 22.2093C40.3515 22.2093 40.9907 21.57 40.9907 20.7814H38.1351ZM20.7814 40.9907C21.57 40.9907 22.2093 40.3515 22.2093 39.5629C22.2093 38.7743 21.57 38.1351 20.7814 38.1351V40.9907ZM23.7968 1.22911C23.3199 0.601097 22.4242 0.478594 21.7961 0.955491C21.1681 1.43239 21.0456 2.32809 21.5225 2.95611L23.7968 1.22911ZM26.8663 20.7812C26.8663 21.5698 27.5055 22.2091 28.2941 22.2091C29.0826 22.2091 29.7219 21.5698 29.7219 20.7812H26.8663ZM17.7662 40.3336C18.2431 40.9616 19.1388 41.0841 19.7668 40.6072C20.3949 40.1303 20.5174 39.2346 20.0405 38.6066L17.7662 40.3336ZM20.0405 2.95611C20.5174 2.32809 20.3949 1.43239 19.7669 0.955491C19.1388 0.478594 18.2431 0.601097 17.7662 1.22911L20.0405 2.95611ZM3.1826 25.9271C2.39404 25.9271 1.75478 26.5664 1.75478 27.3549C1.75478 28.1435 2.39404 28.7828 3.1826 28.7828V25.9271ZM20.7815 28.7828C21.5701 28.7828 22.2093 28.1435 22.2093 27.3549C22.2093 26.5664 21.5701 25.9271 20.7815 25.9271V28.7828ZM3.1826 12.7801C2.39404 12.7801 1.75478 13.4194 1.75478 14.208C1.75478 14.9965 2.39404 15.6358 3.1826 15.6358V12.7801ZM38.3805 15.6358C39.169 15.6358 39.8083 14.9965 39.8083 14.208C39.8083 13.4194 39.169 12.7801 38.3805 12.7801V15.6358ZM39.3354 31.8952L38.5873 33.1113L38.5874 33.1114L39.3354 31.8952ZM39.2505 33.9624L39.4113 35.3812L39.4115 35.3812L39.2505 33.9624ZM34.4301 34.5088L34.2693 33.0901L33.4979 33.1775L33.1519 33.8724L34.4301 34.5088ZM32.268 38.8516L30.9898 38.2153L30.9898 38.2153L32.268 38.8516ZM30.2963 38.2243L28.8976 38.5114L28.8977 38.5115L30.2963 38.2243ZM27.9387 26.7376L26.54 27.0246L26.54 27.0247L27.9387 26.7376ZM29.3477 25.751L28.5993 26.967L28.5995 26.9671L29.3477 25.751ZM40.9907 20.7814C40.9907 9.62017 31.9426 0.572181 20.7814 0.572181V3.42782C30.3655 3.42782 38.1351 11.1973 38.1351 20.7814H40.9907ZM20.7814 0.572181C9.62017 0.572181 0.572181 9.62017 0.572181 20.7814H3.42782C3.42782 11.1973 11.1973 3.42782 20.7814 3.42782V0.572181ZM0.572181 20.7814C0.572181 31.9426 9.62017 40.9907 20.7814 40.9907V38.1351C11.1973 38.1351 3.42782 30.3655 3.42782 20.7814H0.572181ZM22.6596 2.09261C21.5225 2.95611 21.5222 2.95573 21.522 2.95538C21.5219 2.9553 21.5217 2.95498 21.5216 2.95482C21.5213 2.9545 21.5212 2.95429 21.5211 2.9542C21.5209 2.95401 21.5211 2.95426 21.5217 2.95496C21.5227 2.95636 21.5251 2.95953 21.5287 2.96447C21.5361 2.97434 21.5485 2.99125 21.5657 3.01509C21.6002 3.06278 21.6538 3.13817 21.7238 3.24039C21.8639 3.44487 22.0695 3.7564 22.3189 4.16801C22.8181 4.99171 23.491 6.21317 24.1659 7.77694C25.5169 10.907 26.8663 15.3852 26.8663 20.7812H29.7219C29.7219 14.9085 28.254 10.0424 26.7878 6.64531C26.0541 4.94552 25.3184 3.60772 24.7611 2.68806C24.4823 2.22799 24.2477 1.8718 24.0797 1.62649C23.9956 1.50381 23.9282 1.40879 23.8801 1.34229C23.8561 1.30903 23.8369 1.2829 23.8229 1.26401C23.8159 1.25456 23.8102 1.24692 23.8058 1.2411C23.8036 1.23819 23.8018 1.23573 23.8003 1.23373C23.7995 1.23273 23.7988 1.23185 23.7983 1.23108C23.798 1.23069 23.7976 1.2302 23.7974 1.23001C23.7971 1.22955 23.7968 1.22911 22.6596 2.09261ZM18.9034 39.4701C20.0405 38.6066 20.0408 38.607 20.041 38.6073C20.0411 38.6074 20.0413 38.6077 20.0415 38.6079C20.0417 38.6082 20.0419 38.6084 20.0419 38.6085C20.0421 38.6087 20.0419 38.6084 20.0414 38.6077C20.0403 38.6064 20.0379 38.6032 20.0343 38.5982C20.027 38.5884 20.0145 38.5715 19.9973 38.5476C19.9628 38.4999 19.9092 38.4245 19.8392 38.3223C19.6991 38.1178 19.4935 37.8063 19.2441 37.3947C18.7449 36.571 18.072 35.3495 17.3971 33.7857C16.0461 30.6556 14.6967 26.1773 14.6967 20.7812H11.8411C11.8411 26.654 13.309 31.5202 14.7752 34.9173C15.5089 36.6171 16.2446 37.9549 16.8019 38.8746C17.0807 39.3347 17.3153 39.6909 17.4833 39.9362C17.5674 40.0589 17.6348 40.1539 17.6829 40.2204C17.7069 40.2537 17.7261 40.2798 17.7401 40.2987C17.7471 40.3081 17.7528 40.3158 17.7572 40.3216C17.7594 40.3245 17.7612 40.327 17.7627 40.329C17.7635 40.33 17.7642 40.3308 17.7647 40.3316C17.765 40.332 17.7654 40.3325 17.7655 40.3327C17.7659 40.3331 17.7662 40.3336 18.9034 39.4701ZM14.6967 20.7812C14.6967 15.3852 16.0461 10.907 17.3971 7.77694C18.072 6.21317 18.7449 4.99171 19.2441 4.16801C19.4935 3.7564 19.6991 3.44487 19.8392 3.24039C19.9092 3.13817 19.9628 3.06278 19.9973 3.01509C20.0145 2.99125 20.0269 2.97434 20.0343 2.96447C20.0379 2.95953 20.0403 2.95636 20.0413 2.95496C20.0419 2.95426 20.0421 2.95401 20.0419 2.9542C20.0418 2.95429 20.0417 2.9545 20.0415 2.95482C20.0413 2.95498 20.0411 2.9553 20.041 2.95538C20.0408 2.95573 20.0405 2.95611 18.9034 2.09261C17.7662 1.22911 17.7659 1.22955 17.7656 1.23001C17.7654 1.2302 17.765 1.23069 17.7647 1.23108C17.7642 1.23185 17.7635 1.23273 17.7627 1.23373C17.7612 1.23573 17.7594 1.23819 17.7572 1.2411C17.7528 1.24692 17.7471 1.25456 17.7401 1.26401C17.7261 1.2829 17.7069 1.30903 17.6829 1.34229C17.6348 1.40879 17.5674 1.50381 17.4833 1.62649C17.3153 1.8718 17.0807 2.22799 16.8019 2.68806C16.2446 3.60772 15.5089 4.94552 14.7752 6.64531C13.309 10.0424 11.8411 14.9085 11.8411 20.7812H14.6967ZM3.1826 28.7828H20.7815V25.9271H3.1826V28.7828ZM3.1826 15.6358H38.3805V12.7801H3.1826V15.6358ZM38.5874 33.1114C38.5919 33.1141 38.5698 33.1053 38.5724 33.0434C38.5739 33.0064 38.5883 32.8978 38.6884 32.7744C38.8042 32.6316 38.965 32.5579 39.0896 32.5437L39.4115 35.3812C40.7509 35.2292 41.3862 34.1193 41.4256 33.1607C41.4636 32.2349 41.0064 31.2466 40.0834 30.679L38.5874 33.1114ZM39.0897 32.5437L34.2693 33.0901L34.5909 35.9275L39.4113 35.3812L39.0897 32.5437ZM33.1519 33.8724L30.9898 38.2153L33.5461 39.488L35.7083 35.1451L33.1519 33.8724ZM30.9898 38.2153C31.0457 38.103 31.1701 37.9771 31.3439 37.917C31.4942 37.8651 31.6012 37.8888 31.6365 37.9C31.6954 37.9188 31.696 37.9425 31.6949 37.9372L28.8977 38.5115C29.1156 39.5728 29.8878 40.3404 30.7707 40.6213C31.685 40.9122 32.9454 40.6948 33.5462 39.4879L30.9898 38.2153ZM31.695 37.9373L29.3373 26.4505L26.54 27.0247L28.8976 38.5114L31.695 37.9373ZM29.3373 26.4506C29.3388 26.4575 29.3489 26.522 29.3137 26.6197C29.2785 26.7172 29.2074 26.819 29.0989 26.895C28.9904 26.9709 28.8704 27.003 28.7666 27.0027C28.6626 27.0024 28.6054 26.9708 28.5993 26.967L30.096 24.535C29.2839 24.0353 28.264 23.9934 27.4609 24.5558C26.6578 25.1181 26.3484 26.0907 26.54 27.0246L29.3373 26.4506ZM28.5995 26.9671L38.5873 33.1113L40.0836 30.679L30.0958 24.5349L28.5995 26.9671Z" fill="#4B2D78"/>
</svg>
