<svg width="20" height="20" viewBox="0 0 20 20" fill="none" xmlns="http://www.w3.org/2000/svg">
<g clip-path="url(#clip0_241_502)">
<path d="M14.1666 2.49999C14.3855 2.28112 14.6453 2.1075 14.9313 1.98905C15.2173 1.8706 15.5238 1.80963 15.8333 1.80963C16.1428 1.80963 16.4493 1.8706 16.7353 1.98905C17.0213 2.1075 17.2811 2.28112 17.5 2.49999C17.7188 2.71886 17.8924 2.97869 18.0109 3.26466C18.1293 3.55063 18.1903 3.85713 18.1903 4.16665C18.1903 4.47618 18.1293 4.78268 18.0109 5.06865C17.8924 5.35461 17.7188 5.61445 17.5 5.83332L6.24996 17.0833L1.66663 18.3333L2.91663 13.75L14.1666 2.49999Z" stroke="#4B2D78" stroke-width="2" stroke-linecap="round" stroke-linejoin="round"/>
</g>
<defs>
<clipPath id="clip0_241_502">
<rect width="20" height="20" fill="white"/>
</clipPath>
</defs>
</svg>
