<svg width="18" height="18" viewBox="0 0 18 18" fill="none" xmlns="http://www.w3.org/2000/svg">
<g clip-path="url(#clip0_1212_541)">
<path d="M6.8999 15L6.5999 15.6H11.3999L11.0999 15H12.8999L14.3999 18H12.5999L11.9999 16.8H5.9999L5.3999 18H3.5999L5.0999 15H6.8999ZM15.5999 3.60001V12C15.5999 13.32 14.5199 14.4 13.1999 14.4H4.7999C3.4799 14.4 2.3999 13.32 2.3999 12V3.60001C2.3999 2.28001 3.4799 1.20001 4.7999 1.20001H13.1999C14.5199 1.20001 15.5999 2.28001 15.5999 3.60001ZM10.7999 11.4C10.7999 12.06 11.3399 12.6 11.9999 12.6C12.6599 12.6 13.1999 12.06 13.1999 11.4C13.1999 10.74 12.6599 10.2 11.9999 10.2C11.3399 10.2 10.7999 10.74 10.7999 11.4ZM7.1999 11.4C7.1999 10.74 6.6599 10.2 5.9999 10.2C5.3399 10.2 4.7999 10.74 4.7999 11.4C4.7999 12.06 5.3399 12.6 5.9999 12.6C6.6599 12.6 7.1999 12.06 7.1999 11.4ZM3.5999 4.20001L3.6119 7.80001C3.6119 8.13601 3.8879 8.40001 4.2119 8.40001H7.8119C8.1359 8.40001 8.4119 8.13601 8.4119 7.80001L8.3879 4.20001C8.3879 3.86401 8.1239 3.60001 7.7879 3.60001H4.1999C3.8639 3.60001 3.5999 3.86401 3.5999 4.20001ZM9.5999 4.20001L9.6119 7.80001C9.6119 8.13601 9.8879 8.40001 10.2119 8.40001H13.8119C14.1359 8.40001 14.4119 8.13601 14.4119 7.80001L14.3879 4.20001C14.3879 3.86401 14.1239 3.60001 13.7879 3.60001H10.1999C9.8639 3.60001 9.5999 3.86401 9.5999 4.20001Z" fill="#4B2D78"/>
</g>
<defs>
<clipPath id="clip0_1212_541">
<rect width="18" height="18" fill="white"/>
</clipPath>
</defs>
</svg>
