<svg width="15" height="17" viewBox="0 0 15 17" fill="none" xmlns="http://www.w3.org/2000/svg">
<path d="M0 2.61538C0 1.17692 1.22727 0 2.72727 0H12.2727C13.7727 0 15 1.17692 15 2.61538V13.0769C15 14.3846 13.6364 14.3846 13.6364 14.3846V15.6923C13.6364 15.6923 13.6364 17 12.2727 17C10.9091 17 10.9091 15.6923 10.9091 15.6923V14.3846H4.09091V15.6923C4.09091 15.6923 4.09091 17 2.72727 17C1.36364 17 1.36364 15.6923 1.36364 15.6923V14.3846C0 14.3846 0 13.0769 0 13.0769V8.10769V2.61538ZM2.04545 3.92308C1.66364 3.92308 1.36364 4.21077 1.36364 4.57692V8.5C1.36364 8.86615 1.66364 9.15385 2.04545 9.15385H12.9545C13.3364 9.15385 13.6364 8.86615 13.6364 8.5V4.57692C13.6364 4.21077 13.3364 3.92308 12.9545 3.92308H2.04545ZM2.72727 10.4615C1.97727 10.4615 1.36364 11.05 1.36364 11.7692C1.36364 12.4885 1.97727 13.0769 2.72727 13.0769C3.47727 13.0769 4.09091 12.4885 4.09091 11.7692C4.09091 11.05 3.47727 10.4615 2.72727 10.4615ZM12.2727 10.4615C11.5227 10.4615 10.9091 11.05 10.9091 11.7692C10.9091 12.4885 11.5227 13.0769 12.2727 13.0769C13.0227 13.0769 13.6364 12.4885 13.6364 11.7692C13.6364 11.05 13.0227 10.4615 12.2727 10.4615ZM2.72727 1.96154C2.72727 2.32769 3.02727 2.61538 3.40909 2.61538H11.5909C11.9727 2.61538 12.2727 2.32769 12.2727 1.96154C12.2727 1.59538 11.9727 1.30769 11.5909 1.30769H3.40909C3.02727 1.30769 2.72727 1.59538 2.72727 1.96154Z" fill="#4B2D78"/>
</svg>
