<svg width="14" height="16" viewBox="0 0 14 16" fill="none" xmlns="http://www.w3.org/2000/svg">
<path d="M2 2.1V14.4C2 14.4552 2.04477 14.5 2.1 14.5H11.9C11.9552 14.5 12 14.4552 12 14.4V2.1C12 2.04477 11.9552 2 11.9 2H2.1C2.04477 2 2 2.04477 2 2.1Z" stroke="#4B2D78" stroke-width="1.5" stroke-linecap="round"/>
<path d="M4.5 1H9.5" stroke="#4B2D78" stroke-width="1.5" stroke-linecap="round"/>
<path d="M1 2H13" stroke="#4B2D78" stroke-width="1.5" stroke-linecap="round"/>
<rect x="4" y="4" width="2" height="2" rx="0.5" fill="#4B2D78"/>
<rect x="4" y="7" width="2" height="2" rx="0.5" fill="#4B2D78"/>
<rect x="4" y="10" width="2" height="2" rx="0.5" fill="#4B2D78"/>
<rect x="8" y="4" width="2" height="2" rx="0.5" fill="#4B2D78"/>
<rect x="8" y="7" width="2" height="2" rx="0.5" fill="#4B2D78"/>
<rect x="8" y="10" width="2" height="2" rx="0.5" fill="#4B2D78"/>
</svg>
