<svg width="26" height="12" viewBox="0 0 26 12" fill="none" xmlns="http://www.w3.org/2000/svg">
<g clip-path="url(#clip0_680_490)">
<path fill-rule="evenodd" clip-rule="evenodd" d="M7.30147 3.5771C5.77832 2.2684 4.6904 0.7726 4.18002 0C4.6904 -0.7726 5.77832 -2.26842 7.30147 -3.57706C8.87402 -4.92815 10.8157 -6 13 -6C15.1843 -6 17.1261 -4.92815 18.6986 -3.57706C20.2218 -2.26842 21.3097 -0.7726 21.8201 0C21.3097 0.7726 20.2218 2.2684 18.6986 3.5771C17.1261 4.9282 15.1843 6 13 6C10.8157 6 8.87402 4.9282 7.30147 3.5771ZM13 -8C10.1475 -8 7.75717 -6.60538 5.99812 -5.09405C4.23268 -3.57724 3.00757 -1.8624 2.46387 -1.0302C2.05306 -0.4015 2.05306 0.4015 2.46387 1.0302C3.00757 1.8624 4.23268 3.5772 5.99812 5.0941C7.75717 6.6054 10.1475 8 13 8C15.8525 8 18.2429 6.6054 20.002 5.0941C21.7674 3.5772 22.9925 1.8624 23.5362 1.0302C23.947 0.4015 23.947 -0.4015 23.5362 -1.0302C22.9925 -1.8624 21.7674 -3.57724 20.002 -5.09405C18.2429 -6.60538 15.8525 -8 13 -8Z" fill="white"/>
<path d="M21.1215 3L22.9852 4.23546" stroke="white" stroke-width="2" stroke-linecap="round"/>
<path d="M17.75 6L19.0587 7.57974" stroke="white" stroke-width="2" stroke-linecap="round"/>
<path d="M13.1251 9.25L13.1081 7.014" stroke="white" stroke-width="2" stroke-linecap="round"/>
<path d="M8.67883 6L7.3701 7.57974" stroke="white" stroke-width="2" stroke-linecap="round"/>
<path d="M4.98523 3L3.12146 4.23546" stroke="white" stroke-width="2" stroke-linecap="round"/>
</g>
<defs>
<clipPath id="clip0_680_490">
<rect width="26" height="12" fill="white"/>
</clipPath>
</defs>
</svg>
