<svg width="14" height="14" viewBox="0 0 14 14" fill="none" xmlns="http://www.w3.org/2000/svg">
<path d="M4.66675 3.50006H2.91672C2.59413 3.50006 2.33337 3.23872 2.33337 2.91672C2.33337 2.59471 2.59413 2.33337 2.91672 2.33337H4.66675C4.98934 2.33337 5.25009 2.59471 5.25009 2.91672C5.25009 3.23872 4.98934 3.50006 4.66675 3.50006ZM7.58347 5.83344H2.91672C2.59413 5.83344 2.33337 5.5721 2.33337 5.25009C2.33337 4.92809 2.59413 4.66675 2.91672 4.66675H7.58347C7.90606 4.66675 8.16681 4.92809 8.16681 5.25009C8.16681 5.5721 7.90606 5.83344 7.58347 5.83344ZM7.58347 8.16681H2.91672C2.59413 8.16681 2.33337 7.90547 2.33337 7.58347C2.33337 7.26146 2.59413 7.00012 2.91672 7.00012H7.58347C7.90606 7.00012 8.16681 7.26146 8.16681 7.58347C8.16681 7.90547 7.90606 8.16681 7.58347 8.16681Z" fill="white"/>
<path d="M10.5002 1.16669V5.83344C10.5002 6.15428 10.2377 6.41678 9.91684 6.41678C9.59601 6.41678 9.3335 6.15428 9.3335 5.83344V1.45836C9.3335 1.29502 9.20517 1.16669 9.04183 1.16669H1.45836C1.29502 1.16669 1.16669 1.29502 1.16669 1.45836V12.5419C1.16669 12.7052 1.29502 12.8336 1.45836 12.8336H9.04183C9.20517 12.8336 9.3335 12.7052 9.3335 12.5419V12.2502C9.3335 11.9294 9.59601 11.6669 9.91684 11.6669C10.2377 11.6669 10.5002 11.9294 10.5002 12.2502V12.8336C10.5002 13.4752 9.97518 14.0003 9.3335 14.0003H1.16669C0.525009 14.0003 0 13.4752 0 12.8336V1.16669C0 0.525009 0.525009 0 1.16669 0H9.3335C9.97518 0 10.5002 0.525009 10.5002 1.16669Z" fill="white"/>
<path d="M13.9244 6.9313C14.1052 7.24631 13.9507 7.6739 13.5773 7.88974L7.94804 11.139C7.89904 11.1681 7.84537 11.1891 7.79346 11.2031L6.2441 11.5881C6.02826 11.6418 5.82409 11.5677 5.73075 11.405C5.63625 11.2428 5.67825 11.0258 5.82992 10.8724L6.94236 9.73019C6.97911 9.68819 7.02228 9.65844 7.06719 9.63277C7.06953 9.62694 7.07419 9.62402 7.07419 9.62402L12.7035 6.37479C13.0768 6.15896 13.5248 6.23829 13.7068 6.55271L13.925 6.93189L13.9244 6.9313Z" fill="white"/>
</svg>
