<svg width="21" height="21" viewBox="0 0 21 21" fill="none" xmlns="http://www.w3.org/2000/svg">
<path fill-rule="evenodd" clip-rule="evenodd" d="M5.51385 13.63C4.18109 12.4848 3.22916 11.176 2.78258 10.5C3.22916 9.82398 4.18109 8.51513 5.51385 7.37007C6.88983 6.18787 8.58883 5.25 10.5001 5.25C12.4113 5.25 14.1104 6.18787 15.4863 7.37007C16.8191 8.51513 17.771 9.82398 18.2176 10.5C17.771 11.176 16.8191 12.4848 15.4863 13.63C14.1104 14.8122 12.4113 15.75 10.5001 15.75C8.58883 15.75 6.88983 14.8122 5.51385 13.63ZM10.5001 3.5C8.00416 3.5 5.91258 4.72029 4.37342 6.04271C2.82866 7.36992 1.75668 8.8704 1.28095 9.59857C0.921488 10.1487 0.921488 10.8513 1.28095 11.4014C1.75668 12.1296 2.82866 13.6301 4.37342 14.9573C5.91258 16.2797 8.00416 17.5 10.5001 17.5C12.996 17.5 15.0876 16.2797 16.6268 14.9573C18.1715 13.6301 19.2435 12.1296 19.7192 11.4014C20.0787 10.8513 20.0787 10.1487 19.7192 9.59857C19.2435 8.8704 18.1715 7.36992 16.6268 6.04271C15.0876 4.72029 12.996 3.5 10.5001 3.5ZM8.75006 10.5C8.75006 9.53348 9.53362 8.75 10.5001 8.75C11.4666 8.75 12.2501 9.53348 12.2501 10.5C12.2501 11.4665 11.4666 12.25 10.5001 12.25C9.53362 12.25 8.75006 11.4665 8.75006 10.5ZM10.5001 7C8.5671 7 7.0001 8.567 7.0001 10.5C7.0001 12.433 8.5671 14 10.5001 14C12.4331 14 14.0001 12.433 14.0001 10.5C14.0001 8.567 12.4331 7 10.5001 7Z" fill="#4B2D78"/>
</svg>
