<svg width="16" height="16" viewBox="0 0 16 16" fill="none" xmlns="http://www.w3.org/2000/svg">
<path d="M9.50298 4.60746C9.37764 4.73533 9.30744 4.90724 9.30744 5.08629C9.30744 5.26533 9.37764 5.43724 9.50298 5.56511L10.5974 6.65956C10.7253 6.78489 10.8972 6.8551 11.0763 6.8551C11.2553 6.8551 11.4272 6.78489 11.5551 6.65956L14.1339 4.08076C14.4778 4.84085 14.582 5.68771 14.4324 6.50849C14.2829 7.32927 13.8867 8.08498 13.2968 8.67491C12.7069 9.26484 11.9512 9.66098 11.1304 9.81052C10.3096 9.96007 9.46275 9.85593 8.70266 9.51197L3.976 14.2386C3.70388 14.5108 3.33479 14.6636 2.94995 14.6636C2.56511 14.6636 2.19603 14.5108 1.9239 14.2386C1.65178 13.9665 1.4989 13.5974 1.4989 13.2126C1.4989 12.8277 1.65178 12.4587 1.9239 12.1865L6.65056 7.45988C6.30661 6.69979 6.20247 5.85293 6.35201 5.03215C6.50156 4.21137 6.8977 3.45566 7.48763 2.86573C8.07756 2.2758 8.83327 1.87966 9.65405 1.73011C10.4748 1.58056 11.3217 1.68471 12.0818 2.02866L9.50298 4.60746Z" stroke="white" stroke-width="1.5" stroke-linecap="round" stroke-linejoin="round"/>
</svg>
