<svg width="18" height="18" viewBox="0 0 18 18" fill="none" xmlns="http://www.w3.org/2000/svg">
<rect x="1" y="1" width="16" height="16" rx="1" stroke="#4B2D78" stroke-width="1.5" stroke-linecap="round" stroke-linejoin="bevel"/>
<path d="M7.52532 14.1152L7.49566 13.1028C7.48728 12.8164 7.23918 12.5822 6.95384 12.5913L5.69493 12.6316C5.62884 12.6337 5.57242 12.5773 5.57453 12.5112L5.61464 11.2574C5.62383 10.9702 5.38658 10.7211 5.09837 10.7155L4.10366 10.696C3.83509 10.6907 3.62348 10.9 3.62592 11.1684L3.65199 14.0351C3.65455 14.3162 3.89 14.5528 4.17116 14.5568L7.05044 14.5977C7.32181 14.6016 7.53327 14.3867 7.52532 14.1152Z" fill="#4B2D78"/>
<path d="M10.6972 4.10738L10.7269 5.1198C10.7353 5.40619 10.9834 5.64037 11.2687 5.63124L12.5276 5.59097C12.5937 5.58886 12.6501 5.64528 12.648 5.71137L12.6079 6.96514C12.5987 7.25238 12.836 7.50143 13.1242 7.50708L14.1189 7.52656C14.3874 7.53182 14.5991 7.32255 14.5966 7.05411L14.5705 4.18747C14.568 3.90638 14.3325 3.66979 14.0514 3.66579L11.1721 3.62484C10.9007 3.62098 10.6893 3.83585 10.6972 4.10738Z" fill="#4B2D78"/>
</svg>
