<svg width="16" height="15" viewBox="0 0 16 15" fill="none" xmlns="http://www.w3.org/2000/svg">
<path d="M5.66667 1.48148C3.91816 1.56046 1.44993 2.71036 1.05439 2.89964C1.02002 2.91609 1 2.95007 1 2.98817V13.8394C1 13.9134 1.07647 13.963 1.14352 13.9315C1.73364 13.6547 4.01951 12.63 5.66667 12.5556C7.52561 12.4716 8.47439 13.6025 10.3333 13.5185C12.0818 13.4395 14.5501 12.2896 14.9456 12.1004C14.98 12.0839 15 12.0499 15 12.0118V1.16065C15 1.08659 14.9235 1.03703 14.8565 1.06848C14.2664 1.34527 11.9805 2.37005 10.3333 2.44444C8.47439 2.52841 7.52561 1.39752 5.66667 1.48148Z" stroke="white" stroke-width="1.5"/>
<path d="M10 13.5V2" stroke="white" stroke-width="1.5"/>
<path d="M6 2V13" stroke="white" stroke-width="1.5"/>
</svg>
