<svg width="13" height="17" viewBox="0 0 13 17" fill="none" xmlns="http://www.w3.org/2000/svg">
<path d="M1.63554 8.89493L3.17817 6.46287C3.18648 6.44976 3.19773 6.43876 3.21103 6.43076L5.39203 5.11777C5.4076 5.10839 5.42543 5.10344 5.4436 5.10344L8.48376 5.10344C8.51987 5.10344 8.55214 5.12106 8.57019 5.15234C8.79226 5.53703 10.291 8.07222 11.4459 8.47019" stroke="#4B2D78" stroke-width="1.5" stroke-linecap="round"/>
<circle cx="6.93409" cy="2.07966" r="1.75" transform="rotate(-4.48352 6.93409 2.07966)" fill="#4B2D78"/>
<path d="M6.08556 6.21595L3.3382 15.7516" stroke="#4B2D78" stroke-width="1.5" stroke-linecap="round"/>
<path d="M8.5422 15.4389L8.5422 12.5759C8.5422 12.5499 8.53205 12.5249 8.51391 12.5062L5.7842 9.6977C5.75519 9.66785 5.7477 9.62315 5.7654 9.58548L7.38073 6.14727" stroke="#4B2D78" stroke-width="1.5" stroke-linecap="round"/>
<path d="M6.09339 6.31564L6.26716 8.53175L6.31122 9.09368C6.3121 9.10495 6.31489 9.11599 6.31947 9.12632L6.68826 9.95984C6.7261 10.0454 6.85017 10.0368 6.87586 9.94685L7.92618 6.27074C7.94408 6.20808 7.89824 6.14532 7.83311 6.14331L7.24348 6.12515L6.18527 6.20813C6.13021 6.21244 6.08907 6.26058 6.09339 6.31564Z" fill="#4B2D78" stroke="#4B2D78" stroke-width="1.5" stroke-linecap="round"/>
</svg>
