<svg width="18" height="19" viewBox="0 0 18 19" fill="none" xmlns="http://www.w3.org/2000/svg">
<rect x="1" y="1.47058" width="16" height="16" stroke="#4B2D78" stroke-width="1.5" stroke-linecap="round" stroke-linejoin="bevel" stroke-dasharray="3 3"/>
<ellipse cx="11" cy="12.9228" rx="1.63636" ry="1.70542" fill="#4B2D78"/>
<path d="M5 10.1617V17.3706C5 17.4258 5.04477 17.4706 5.1 17.4706H16.9C16.9552 17.4706 17 17.4258 17 17.3706V10.1617C17 10.1144 16.9668 10.0735 16.9204 10.0638L14.3184 9.52147C14.2895 9.51544 14.2647 9.49689 14.2507 9.47083L13.4904 8.05275C13.473 8.02027 13.4391 8 13.4023 8H8.68228C8.647 8 8.61433 8.01859 8.59631 8.04893L7.74975 9.47411C7.73543 9.49822 7.71164 9.51521 7.68418 9.52093L5.07959 10.0638C5.03323 10.0735 5 10.1144 5 10.1617Z" stroke="#4B2D78" stroke-width="1.5"/>
</svg>
